<svg width="1920" height="715" viewBox="0 0 1920 715" fill="none" xmlns="http://www.w3.org/2000/svg">
<g clip-path="url(#clip0_66_76)">
<path d="M1454.5 476.413C1454.5 421.69 1498.86 377.328 1553.58 377.328C1608.31 377.328 1652.67 421.69 1652.67 476.413C1652.67 531.136 1608.31 575.498 1553.58 575.498C1498.86 575.498 1454.5 531.136 1454.5 476.413Z" stroke="url(#paint0_linear_66_76)" stroke-opacity="0.2"/>
<path d="M1735.83 475.585C1735.83 420.862 1780.19 376.5 1834.91 376.5C1889.64 376.5 1934 420.862 1934 475.585C1934 530.308 1889.64 574.67 1834.91 574.67C1780.19 574.67 1735.83 530.308 1735.83 475.585Z" stroke="url(#paint1_linear_66_76)" stroke-opacity="0.2"/>
<path d="M1553.59 376.328H1834.91" stroke="white" stroke-opacity="0.2"/>
<path d="M1553.59 575.5H1834.91" stroke="white" stroke-opacity="0.2"/>
<path d="M1134.5 656.227C1134.5 612.32 1098.91 576.727 1055 576.727C1011.09 576.727 975.5 612.32 975.5 656.227C975.5 700.133 1011.09 735.727 1055 735.727C1098.91 735.727 1134.5 700.133 1134.5 656.227Z" stroke="white" stroke-opacity="0.2"/>
<path d="M1294.5 656.227C1294.5 612.32 1258.91 576.727 1215 576.727C1171.09 576.727 1135.5 612.32 1135.5 656.227C1135.5 700.133 1171.09 735.727 1215 735.727C1258.91 735.727 1294.5 700.133 1294.5 656.227Z" stroke="white" stroke-opacity="0.2"/>
<path d="M1454.5 656.227C1454.5 612.32 1418.91 576.727 1375 576.727C1331.09 576.727 1295.5 612.32 1295.5 656.227C1295.5 700.133 1331.09 735.727 1375 735.727C1418.91 735.727 1454.5 700.133 1454.5 656.227Z" stroke="white" stroke-opacity="0.2"/>
<g filter="url(#filter0_f_66_76)">
<path d="M1977 200H-55V930H1977V200Z" fill="url(#paint2_linear_66_76)" fill-opacity="0.37"/>
</g>
<circle cx="235" cy="653" r="119.5" transform="rotate(-90 235 653)" stroke="url(#paint3_linear_66_76)" stroke-opacity="0.2"/>
<circle cx="235" cy="413" r="119.5" transform="rotate(-90 235 413)" stroke="url(#paint4_linear_66_76)" stroke-opacity="0.2"/>
<circle cx="574" cy="413" r="119.5" transform="rotate(-90 574 413)" stroke="url(#paint5_linear_66_76)" stroke-opacity="0.2"/>
<circle cx="574" cy="652" r="119.5" transform="rotate(-90 574 652)" stroke="url(#paint6_linear_66_76)" stroke-opacity="0.2"/>
<line x1="235" y1="532.5" x2="574" y2="532.5" stroke="white" stroke-opacity="0.2"/>
<line x1="235" y1="293.5" x2="574" y2="293.5" stroke="white" stroke-opacity="0.2"/>
</g>
<defs>
<filter id="filter0_f_66_76" x="-255" y="0" width="2432" height="1130" filterUnits="userSpaceOnUse" color-interpolation-filters="sRGB">
<feFlood flood-opacity="0" result="BackgroundImageFix"/>
<feBlend mode="normal" in="SourceGraphic" in2="BackgroundImageFix" result="shape"/>
<feGaussianBlur stdDeviation="100" result="effect1_foregroundBlur_66_76"/>
</filter>
<linearGradient id="paint0_linear_66_76" x1="1454" y1="476.413" x2="1653.17" y2="476.413" gradientUnits="userSpaceOnUse">
<stop stop-color="white"/>
<stop offset="0.5" stop-opacity="0"/>
<stop offset="1" stop-opacity="0"/>
</linearGradient>
<linearGradient id="paint1_linear_66_76" x1="1735.33" y1="475.585" x2="1934.5" y2="475.585" gradientUnits="userSpaceOnUse">
<stop stop-opacity="0"/>
<stop offset="0.485577" stop-opacity="0"/>
<stop offset="0.5" stop-color="white"/>
<stop offset="1" stop-color="white"/>
</linearGradient>
<linearGradient id="paint2_linear_66_76" x1="961" y1="200" x2="961" y2="930" gradientUnits="userSpaceOnUse">
<stop offset="0.418269" stop-color="#0A0A0A"/>
<stop offset="1" stop-color="#AD62FF"/>
</linearGradient>
<linearGradient id="paint3_linear_66_76" x1="235" y1="533" x2="235" y2="773" gradientUnits="userSpaceOnUse">
<stop stop-color="white"/>
<stop offset="0.5" stop-color="white"/>
<stop offset="0.5" stop-opacity="0"/>
<stop offset="1" stop-opacity="0"/>
</linearGradient>
<linearGradient id="paint4_linear_66_76" x1="235" y1="293" x2="235" y2="533" gradientUnits="userSpaceOnUse">
<stop stop-color="white"/>
<stop offset="0.5" stop-color="white"/>
<stop offset="0.5001" stop-opacity="0"/>
<stop offset="1" stop-opacity="0"/>
</linearGradient>
<linearGradient id="paint5_linear_66_76" x1="574" y1="293" x2="574" y2="533" gradientUnits="userSpaceOnUse">
<stop stop-opacity="0"/>
<stop offset="0.5" stop-opacity="0"/>
<stop offset="0.5" stop-color="white"/>
<stop offset="1" stop-color="white"/>
</linearGradient>
<linearGradient id="paint6_linear_66_76" x1="574" y1="532" x2="574" y2="772" gradientUnits="userSpaceOnUse">
<stop stop-opacity="0"/>
<stop offset="0.485577" stop-opacity="0"/>
<stop offset="0.5" stop-color="white"/>
<stop offset="1" stop-color="white"/>
</linearGradient>
<clipPath id="clip0_66_76">
<rect width="1920" height="715" fill="white"/>
</clipPath>
</defs>
</svg>
