<svg width="1920" height="715" viewBox="0 0 1920 715" fill="none" xmlns="http://www.w3.org/2000/svg">
<g filter="url(#filter0_f_34_76)">
<rect x="-55" y="200" width="2032" height="730" fill="url(#paint0_linear_34_76)" fill-opacity="0.37"/>
</g>
<path d="M1454.5 476.415C1454.5 421.692 1498.86 377.33 1553.58 377.33C1608.31 377.33 1652.67 421.692 1652.67 476.415C1652.67 531.138 1608.31 575.5 1553.58 575.5C1498.86 575.5 1454.5 531.138 1454.5 476.415Z" stroke="url(#paint1_linear_34_76)" stroke-opacity="0.2"/>
<path d="M1735.83 475.585C1735.83 420.862 1780.19 376.5 1834.91 376.5C1889.64 376.5 1934 420.862 1934 475.585C1934 530.308 1889.64 574.67 1834.91 574.67C1780.19 574.67 1735.83 530.308 1735.83 475.585Z" stroke="url(#paint2_linear_34_76)" stroke-opacity="0.2"/>
<line x1="1553.59" y1="376.33" x2="1834.91" y2="376.33" stroke="white" stroke-opacity="0.2"/>
<line x1="1553.59" y1="575.5" x2="1834.91" y2="575.5" stroke="white" stroke-opacity="0.2"/>
<circle cx="1055" cy="656.227" r="79.5" transform="rotate(-90 1055 656.227)" stroke="white" stroke-opacity="0.2"/>
<circle cx="1215" cy="656.227" r="79.5" transform="rotate(-90 1215 656.227)" stroke="white" stroke-opacity="0.2"/>
<circle cx="1375" cy="656.227" r="79.5" transform="rotate(-90 1375 656.227)" stroke="white" stroke-opacity="0.2"/>
<defs>
<filter id="filter0_f_34_76" x="-255" y="0" width="2432" height="1130" filterUnits="userSpaceOnUse" color-interpolation-filters="sRGB">
<feFlood flood-opacity="0" result="BackgroundImageFix"/>
<feBlend mode="normal" in="SourceGraphic" in2="BackgroundImageFix" result="shape"/>
<feGaussianBlur stdDeviation="100" result="effect1_foregroundBlur_34_76"/>
</filter>
<linearGradient id="paint0_linear_34_76" x1="961" y1="200" x2="961" y2="930" gradientUnits="userSpaceOnUse">
<stop offset="0.418269" stop-color="#0A0A0A"/>
<stop offset="1" stop-color="#AD62FF"/>
</linearGradient>
<linearGradient id="paint1_linear_34_76" x1="1454" y1="476.415" x2="1653.17" y2="476.415" gradientUnits="userSpaceOnUse">
<stop stop-color="white"/>
<stop offset="0.5" stop-color="white"/>
<stop offset="0.5" stop-opacity="0"/>
<stop offset="1" stop-opacity="0"/>
</linearGradient>
<linearGradient id="paint2_linear_34_76" x1="1735.33" y1="475.585" x2="1934.5" y2="475.585" gradientUnits="userSpaceOnUse">
<stop stop-opacity="0"/>
<stop offset="0.485577" stop-opacity="0"/>
<stop offset="0.5" stop-color="white"/>
<stop offset="1" stop-color="white"/>
</linearGradient>
</defs>
</svg>
