<svg width="512" height="512" viewBox="0 0 512 512" fill="none" xmlns="http://www.w3.org/2000/svg">
<path d="M262.755 4.90967L478.608 130.455V381.545L262.755 507.09L46.9019 381.545V130.455L262.755 4.90967Z" stroke="#00FFFF" stroke-width="3"/>
<path d="M175.962 173.554L129.003 200.847V313.655L175.962 339.128V173.554Z" fill="#00FFFF"/>
<path d="M259.044 277.266V98.9551L398.116 173.554V211.764L298.779 164.457V240.876H398.116V339.128L259.044 419.186V368.24L358.381 313.655V277.266H259.044Z" fill="#00FFFF"/>
<path d="M249.246 4.90967L465.099 130.455V381.545L249.246 507.09L33.3926 381.545V130.455L249.246 4.90967Z" stroke="#FF0000" stroke-width="3"/>
<path d="M162.516 173.554L115.557 200.847V313.655L162.516 339.128V173.554Z" fill="#FF0000"/>
<path d="M245.598 277.266V98.9551L384.67 173.554V211.764L285.333 164.457V240.876H384.67V339.128L245.598 419.186V368.24L344.935 313.655V277.266H245.598Z" fill="#FF0000"/>
<path d="M255.998 4.90967L471.851 130.455V381.545L255.998 507.09L40.1455 381.545V130.455L255.998 4.90967Z" stroke="white" stroke-width="3"/>
<path d="M169.209 173.554L122.25 200.847V313.655L169.209 339.128V173.554Z" fill="white"/>
<path d="M252.291 277.266V98.9551L391.363 173.554V211.764L292.026 164.457V240.876H391.363V339.128L252.291 419.186V368.24L351.628 313.655V277.266H252.291Z" fill="white"/>
<path d="M169.209 173.554L122.25 200.847V313.655L169.209 339.128V173.554Z" stroke="#FF0000"/>
<path d="M252.291 277.266V98.9551L391.363 173.554V211.764L292.026 164.457V240.876H391.363V339.128L252.291 419.186V368.24L351.628 313.655V277.266H252.291Z" stroke="#FF0000"/>
</svg>
